<!-- Generator: Adobe Illustrator 19.0.0, SVG Export Plug-In . SVG Version: 6.00 Build 0)  -->
<svg version="1.1" id="Layer_1" xmlns="http://www.w3.org/2000/svg" xmlns:xlink="http://www.w3.org/1999/xlink" width="35" height="35"
	 viewBox="0 0 512 512" style="enable-background:new 0 0 512 512;" xml:space="preserve">
<path style="fill:#FFDA79;" d="M408.309,80.81c-3.733-3.885-8.887-6.081-14.274-6.081h-276.07c-5.387,0-10.542,2.196-14.274,6.081
	c-3.733,3.885-5.719,9.124-5.503,14.508l4.025,100.199c0.426,10.613,9.154,18.999,19.778,18.999H390.01
	c10.623,0,19.352-8.386,19.778-18.999l4.025-100.199C414.028,89.934,412.041,84.696,408.309,80.81z"/>
<path style="fill:#FFC72D;" d="M408.309,80.81c-3.733-3.885-8.887-6.081-14.274-6.081H255.999v139.787h134.009
	c10.623,0,19.352-8.386,19.778-18.999l4.025-100.199C414.028,89.934,412.041,84.696,408.309,80.81z"/>
<path style="fill:#FFDA79;" d="M382.085,372.215H129.914c-5.387,0-10.542,2.196-14.274,6.081c-3.732,3.885-5.72,9.124-5.503,14.506
	c2.466,61.389,2.102,52.324,2.192,54.566l-0.061-1.512l1.894,47.144c0.425,10.616,9.154,19.001,19.777,19.001H378.06
	c10.623,0,19.352-8.385,19.778-18.999l3.044-75.789l-0.548,13.622c0.669-16.651,0.497-12.375,1.528-38.031
	C402.314,381.576,393.324,372.215,382.085,372.215z"/>
<path style="fill:#FFC72D;" d="M382.085,372.215H255.999V512H378.06c10.623,0,19.352-8.385,19.778-18.999l3.044-75.789
	l-0.548,13.622c0.669-16.651,0.497-12.375,1.528-38.031C402.314,381.576,393.324,372.215,382.085,372.215z"/>
<polygon style="fill:#23B898;" points="410.614,174.928 101.385,174.928 110.9,411.802 401.099,411.802 "/>
<path style="fill:#FFDA79;" d="M394.033,114.317H117.965c-5.976,0-11.632-2.7-15.39-7.346c-3.758-4.646-5.216-10.741-3.967-16.585
	l15.974-74.73C116.535,6.525,124.601,0,133.939,0H378.06c9.337,0,17.404,6.525,19.356,15.656l15.974,74.73
	c1.25,5.844-0.208,11.94-3.967,16.585C405.666,111.617,400.01,114.317,394.033,114.317z"/>
<path style="fill:#FFC72D;" d="M413.391,90.385l-15.974-74.73C395.465,6.525,387.397,0,378.06,0H255.999v114.317h138.034
	c5.976,0,11.632-2.7,15.39-7.346C413.182,102.325,414.64,96.23,413.391,90.385z"/>
<polygon style="fill:#1DA49C;" points="410.614,174.928 255.999,174.928 255.999,411.802 401.099,411.802 "/>
<path style="fill:#FFC72D;" d="M433.402,114.317H78.598c-10.931,0-19.794-8.862-19.794-19.794S67.666,74.73,78.598,74.73h354.804
	c10.931,0,19.794,8.862,19.794,19.794S444.333,114.317,433.402,114.317z"/>
<path style="fill:#F5BC20;" d="M433.402,74.73H255.999v39.588h177.401c10.931,0,19.794-8.862,19.794-19.794
	C453.196,83.592,444.333,74.73,433.402,74.73z"/>
<circle style="fill:#FFC72D;" cx="255.999" cy="293.371" r="49.521"/>
<path style="fill:#F5BC20;" d="M255.999,243.844v99.042c27.35,0,49.521-22.172,49.521-49.521S283.349,243.844,255.999,243.844z"/>
<g>
</g>
<g>
</g>
<g>
</g>
<g>
</g>
<g>
</g>
<g>
</g>
<g>
</g>
<g>
</g>
<g>
</g>
<g>
</g>
<g>
</g>
<g>
</g>
<g>
</g>
<g>
</g>
<g>
</g>
</svg>
