<!-- Generator: Adobe Illustrator 19.0.0, SVG Export Plug-In . SVG Version: 6.00 Build 0)  -->
<svg version="1.1" id="Layer_1" xmlns="http://www.w3.org/2000/svg" xmlns:xlink="http://www.w3.org/1999/xlink" width="35" height="35"
	 viewBox="0 0 512.001 512.001" style="enable-background:new 0 0 512.001 512.001;" xml:space="">
<path style="fill:#663310;" d="M375.804,243.984h-27.857v-17.171h-93.378h-92.741v131.906c0,52.909,41.878,96.199,93.059,96.199
	c51.188,0,93.059-43.291,93.059-96.199v-6.217h27.857c19.249,0,34.91-15.661,34.91-34.91v-38.699
	C410.713,259.645,395.053,243.984,375.804,243.984z M387.441,317.592c0,6.417-5.22,11.637-11.637,11.637h-27.857v-61.972h27.857
	c6.417,0,11.637,5.22,11.637,11.637L387.441,317.592L387.441,317.592z"/>
<path style="fill:#874D20;" d="M266.526,226.814v131.906c0,37.84-21.423,70.751-52.349,86.432
	c-30.925-15.682-52.351-48.592-52.351-86.432V226.814h11.321h81.42H266.526z"/>
<path d="M408.487,503.096c0,4.917-3.987,8.904-8.904,8.904H110.192c-4.917,0-8.904-3.987-8.904-8.904s3.987-8.904,8.904-8.904
	h289.391C404.502,494.192,408.487,498.179,408.487,503.096z M410.713,278.894v38.699c0,19.249-15.661,34.91-34.91,34.91h-18.953
	v6.217c0,57.954-45.742,105.104-101.964,105.104c-56.223,0-101.964-47.148-101.964-105.104V226.814c0-4.917,3.986-8.904,8.904-8.904
	h186.12c4.917,0,8.904,3.987,8.904,8.904v17.17h18.953C395.053,243.984,410.713,259.645,410.713,278.894z M339.042,235.718h-168.31
	v123.001c0,48.135,37.752,87.295,84.155,87.295s84.155-39.16,84.155-87.295V235.718z M387.441,278.894
	c0-6.417-5.22-11.637-11.637-11.637h-18.953v61.972h18.953c6.417,0,11.637-5.22,11.637-11.637L387.441,278.894L387.441,278.894z
	 M271.867,178.03c1.762,2.106,4.289,3.191,6.834,3.191c2.016,0,4.043-0.681,5.709-2.075c3.771-3.155,4.271-8.772,1.115-12.544
	c-13.137-15.701-12.69-49.838,0.938-71.621c15.347-24.536,18.736-68.266-0.937-91.789c-3.155-3.772-8.771-4.273-12.543-1.117
	c-3.772,3.154-4.273,8.771-1.117,12.543c12.898,15.422,12.655,49.888-0.5,70.919C255.481,110.929,251.891,154.155,271.867,178.03z
	 M224.349,178.029c1.762,2.106,4.29,3.192,6.835,3.192c2.015,0,4.041-0.68,5.708-2.075c3.772-3.155,4.272-8.771,1.116-12.543
	c-13.133-15.702-12.684-49.839,0.941-71.622c15.346-24.534,18.734-68.265-0.941-91.788c-3.155-3.772-8.771-4.273-12.543-1.117
	c-3.772,3.154-4.273,8.771-1.117,12.543c12.899,15.423,12.658,49.889-0.498,70.92C207.969,110.929,204.38,154.154,224.349,178.029z"
	/>
<g>
</g>
<g>
</g>
<g>
</g>
<g>
</g>
<g>
</g>
<g>
</g>
<g>
</g>
<g>
</g>
<g>
</g>
<g>
</g>
<g>
</g>
<g>
</g>
<g>
</g>
<g>
</g>
<g>
</g>
</svg>
